<svg xmlns="http://www.w3.org/2000/svg" viewBox="0 0 1022 585.12"><defs><style>.cls-1{fill:#fff;}</style></defs><g id="Layer_2" data-name="Layer 2"><g id="logo-havan-w"><path id="linha-2" class="cls-1" d="M0,566.21v18.91H1022V547.3H0Z"/><path id="n" class="cls-1" d="M786.08,327.59c0,5.13.09,5.4,2.53,5.85,14.22,2.71,17.1,4.33,19.72,11.17,1.53,3.87,1.62,9.36,1.62,77.53v73.47l-2.25,4.33c-2.71,5.31-6.13,7.29-15,8.91L786.53,510l-.27,5.58-.27,5.59h80.23V509.84l-6.21-1c-8.82-1.35-12.61-3.51-15.4-8.91l-2.25-4.33-.18-55.46-.27-55.38,2.07,2.34c4.51,5.13,61.59,76.27,73.84,92,7.2,9.27,17.29,22.51,22.42,29.44l9.18,12.61h32.06l.18-86.72c.27-82.21.36-86.8,2-90.49,2.34-5.4,5.67-7.83,12.34-9.09,3.15-.63,6.66-1.27,7.83-1.54,1.8-.36,2-.9,2-5.76v-5.4H925.65v5.4c0,5.13.09,5.4,2.52,5.85,10.54,2,14.23,3.34,16.57,5.86,4.68,5.13,4.68,4.95,5,70.68l.27,61.23-2.52-2.79c-1.35-1.44-27.91-35-59-74.47l-56.54-71.76H786.08Z"/><path id="a-2" class="cls-1" d="M656.87,326.87c-1.17,2.61-17.56,40.25-36.47,83.56-35.65,82-38.72,88.16-45.92,93.2-3.69,2.52-15.22,5.85-20.44,5.85h-3v11.71h86.44V509.75l-5-.63c-6.21-.72-12-3-13.06-5.13-2.61-4.77-.27-14.86,6.67-28.55l3.24-6.48h67.26l4.14,8.74c6.76,14.58,8.38,22.15,5.5,26.2-1.72,2.52-4.33,3.6-12.07,5L688.39,510l-.27,5.58-.27,5.59h87.52l-.27-5.59-.27-5.58-7.11-1.08c-13.33-2.07-19.27-5.76-25.22-15.58-1.71-2.79-18.37-40.16-37-82.93s-34.94-80.23-36.2-83.11c-2.34-5.13-2.34-5.13-6.31-5.13S659,322.28,656.87,326.87Zm17.92,91.67L684,439.7l-10.08.27c-5.58.09-15,.09-21,0l-10.81-.27,9-20.71c4.95-11.44,9.63-22.15,10.44-23.87L662.9,392l1.26,2.7C664.89,396.12,669.66,406.92,674.79,418.54Z"/><path id="v" class="cls-1" d="M393.49,327.5c0,6-.27,5.85,8.56,6.85,12.24,1.44,19.27,6.48,25.84,18.45,1.71,3.25,19.09,42.41,38.63,87.17l35.39,81.31,4-.27,4.05-.27,35.39-81.49c19.45-44.85,36.55-83.65,37.91-86.36,5.94-11.52,13.86-17.1,25.93-18.54,8.82-1,8.55-.82,8.55-6.85v-5.31H530.18l.63,5.13c.81,6.48.81,6.57,4.41,6.57a32.94,32.94,0,0,1,7.66,1.45c6.3,1.8,8,5.13,6.57,12.51-.54,2.7-7.65,20.26-15.85,39s-17.56,40.43-21,48.35-6.57,14.32-6.93,14.23-1.89-2.7-3.24-5.85-10.81-24.76-21-48.08-19.09-44.49-19.63-47c-2.17-9.18,1.17-13,12.33-14.4l5.31-.64.27-5.67.27-5.58H393.49Z"/><path id="a-1" class="cls-1" d="M348.56,324.17c-2.88,7.47-71,162.44-73.12,166.49-3.69,6.85-7.38,11.17-12,13.87-3.78,2.16-14.59,5-19.54,5h-2.61v11.71h86.44V509.84l-6.93-1.17c-5.5-.9-7.39-1.71-9.46-3.69-4.05-4.05-3.06-9.82,4.5-26.83l4.06-9.19,33.76.18,33.77.27,5,11.62c5.76,13.77,6.94,20.8,4,23.77-2.07,2.07-6.48,3.6-13,4.41l-4.14.54-.36,5.67-.27,5.77h86.89V509.75l-4.68-.54c-13.6-1.44-20.08-4.77-26.12-13.33-2.34-3.24-16.57-34.66-40.34-89.14l-36.83-84.1-4.05-.27C349.91,322.1,349.28,322.37,348.56,324.17Zm15.76,92.39L374.4,439.7l-10.26.27c-5.58.09-15,.09-20.89,0l-10.72-.27L342.89,416c5.67-13,10.62-23.42,10.89-23.06S358.83,403.86,364.32,416.56Z"/><path id="h" class="cls-1" d="M16.21,327.59c0,4.86.18,5.4,2.07,5.76,1.08.18,4.59.82,7.83,1.45,7.84,1.35,10.72,3.24,13.51,8.55l2.25,4.41v73.93c0,73.74,0,73.83-1.89,77.44a21.63,21.63,0,0,1-3.69,5.13c-2.43,2.16-8.29,4.14-14.68,4.86l-5.4.63v11.44h86.44V509.93L96,508.85c-9.19-1.44-12.61-3.06-15.31-7.2-3.42-5.14-4.14-12.43-4.14-40.61v-25.4h93.64v24.5c0,27.37-.81,35.38-4.05,40.79-2.61,4.5-6.39,6.39-15.76,8L143.62,510l-.27,5.58-.27,5.59H230.6l-.27-5.59-.27-5.58L223,508.85c-9.28-1.53-13.51-4-16-9.18l-2.07-4.15V347l2.25-4.05c2.7-4.86,7.75-7.74,15.13-8.55,8.46-1,8.28-.82,8.28-6.85v-5.31H143.17v5.4c0,6-.45,5.67,8.55,6.76,6.13.81,11.53,3.33,13.69,6.39,3.87,5.58,4.14,7.83,4.59,37.46l.36,28.63h-94l.45-28.63c.36-31.16.72-33.5,5.4-38.54,2.79-3,10.36-5.77,15.58-5.77,4.23,0,4.86-.81,4.86-6.39v-5.31H16.21Z"/><path id="linha-1" class="cls-1" d="M0,277.17v18.91H1022V258.26H0Z"/><path id="h-elipse" class="cls-1" d="M427.44,41c-.36.27-.63,2.43-.63,4.77V49.9L433,51c8.2,1.35,10.54,2.52,13,6.39l2,3.24.27,59.88c.18,43,0,60.87-.72,63.48-2,6.84-5.22,8.83-17.29,10.81-3.42.54-3.42.54-3.42,4.95v4.5h71.13v-4.5c0-4.86.36-4.59-7.65-5.85-6.84-1.17-9.36-2.79-11.53-7.39-1.89-4.14-2-5.49-2-28.18V134.45l38.09-.27L553,134l-.27,24.49c-.27,20.62-.54,25.12-1.8,27.91-1.8,4-5.85,6.67-11,7.48-9.09,1.35-8.64,1.08-8.64,5.94v4.41h71.13v-4.5c0-4.41,0-4.41-3.33-5-11.43-2-13.59-3.06-16.11-8.2-1.63-3.24-1.72-6.57-2-61-.27-63.57-.18-65.55,4.69-70.41,2.43-2.43,4-3.06,9.81-4L602.39,50V40.35H531.26V49.9L537.47,51c8.65,1.44,10.54,2.52,12.88,7.29,2,4,2.07,5.31,2.34,28.18l.27,24.14H476.33V90.06c0-34.22,1.26-37.1,17.38-39.35l4.23-.63V40.35H463C443.74,40.35,427.71,40.62,427.44,41Z"/><path id="elipse" class="cls-1" d="M478.58.82C391.87,7.22,319,33.06,283.1,70.25c-15.94,16.47-23.05,32-23.14,50.24-.09,51.51,68.43,99.14,168.65,117.42,29.62,5.4,51.05,7.2,86,7.2,35.48.09,55.38-1.62,85.81-7.11,66.19-12.16,122.82-38.72,150.2-70.51C771,143.81,775,119.77,762.76,94.83,738.54,45.57,653.54,7.94,550.17.73,535-.26,493.08-.26,478.58.82Zm63,10.72c91.76,5.58,167.67,35.29,195.76,76.8,7.38,10.9,10.9,21.62,10.9,33.5,0,17.11-6.4,31-21.52,46.73-49.89,51.78-170.64,78-279.68,60.78-67.44-10.62-125.25-37.18-151.1-69.24-10-12.43-15.84-26.65-15.93-38.54,0-5.85,2.52-17,5.4-23.23,13.15-29.08,50.33-54.21,104.45-70.5C433.83,14.51,490.29,8.48,541.61,11.54Z"/></g></g></svg>